<?xml version="1.0" standalone="no"?>
<!DOCTYPE svg PUBLIC "-//W3C//DTD SVG 20010904//EN"
 "http://www.w3.org/TR/2001/REC-SVG-20010904/DTD/svg10.dtd">
<svg version="1.0" xmlns="http://www.w3.org/2000/svg"
 width="700.000000pt" height="700.000000pt" viewBox="0 0 700.000000 700.000000"
 preserveAspectRatio="xMidYMid meet">
<metadata>
Created by potrace 1.14, written by Peter Selinger 2001-2017
</metadata>
<g transform="translate(0.000000,700.000000) scale(0.100000,-0.100000)"
fill="#000000" stroke="none">
<path d="M3120 5955 c-684 -87 -1279 -352 -1802 -803 -350 -303 -665 -723
-865 -1157 -191 -411 -296 -852 -319 -1332 l-7 -143 427 0 426 0 0 30 0 30
-167 0 -166 0 6 118 c16 295 80 601 184 877 52 138 155 359 172 369 6 4 71
-29 145 -73 74 -45 138 -81 143 -81 10 0 58 79 52 84 -2 2 -68 41 -147 88
l-143 85 79 119 c163 245 376 480 597 657 142 114 274 202 285 191 5 -5 43
-70 86 -144 42 -74 78 -136 79 -138 6 -6 86 49 82 56 -35 61 -134 235 -149
259 l-19 32 163 80 c90 44 215 98 278 121 237 86 542 149 803 166 l107 6 0
-171 0 -171 50 0 50 0 0 171 0 172 103 -7 c408 -28 730 -113 1085 -287 l163
-80 -19 -32 c-15 -24 -114 -198 -149 -259 -4 -7 76 -62 82 -56 1 2 37 64 79
138 43 74 81 139 86 144 5 5 46 -17 94 -49 215 -145 454 -365 621 -572 78 -97
249 -343 243 -348 -2 -2 -57 -35 -123 -75 -66 -39 -130 -78 -143 -86 l-22 -15
22 -39 c13 -22 27 -40 32 -40 4 0 68 36 141 80 73 44 137 80 142 80 21 0 167
-330 223 -508 80 -248 140 -594 140 -804 l0 -58 -165 0 -165 0 0 -30 0 -30
420 0 c351 0 422 2 426 14 9 23 -15 353 -37 501 -55 380 -153 691 -329 1050
-169 344 -373 629 -650 906 -527 528 -1130 832 -1890 955 -142 23 -688 29
-840 9z"/>
<path d="M2292 3995 c-122 -34 -142 -64 -124 -182 7 -41 10 -78 8 -82 -3 -4
-10 -178 -16 -386 -6 -209 -15 -438 -21 -508 -9 -112 -9 -131 5 -153 13 -19
25 -24 56 -24 74 0 91 47 110 315 14 199 17 221 36 240 14 14 44 15 228 10
116 -4 234 -11 261 -16 71 -14 114 -46 201 -151 42 -51 127 -141 190 -200 123
-117 152 -130 194 -88 26 26 25 52 -6 113 -28 56 -71 107 -249 296 l-117 124
54 22 c129 53 184 92 230 164 35 56 38 132 8 190 -57 113 -308 242 -587 302
-130 28 -385 36 -461 14z m524 -195 c286 -49 439 -134 420 -236 -21 -109 -190
-169 -521 -184 -110 -5 -223 -12 -252 -16 -70 -9 -100 1 -123 39 -19 30 -20
44 -14 197 4 91 12 176 18 190 9 21 20 26 71 31 90 10 276 0 401 -21z"/>
<path d="M4716 3951 c-13 -15 -21 -56 -32 -178 -31 -347 -33 -400 -17 -568 14
-155 14 -267 0 -282 -19 -19 -462 464 -684 746 -138 175 -234 261 -292 261
-47 0 -57 -35 -65 -230 -7 -186 -23 -343 -61 -571 -31 -191 -48 -428 -34 -489
13 -59 24 -70 71 -70 82 0 108 68 108 288 0 149 36 801 44 809 8 8 63 -41 126
-111 93 -102 196 -227 440 -536 341 -432 367 -460 436 -460 60 0 97 72 110
213 6 74 -6 426 -32 886 -16 290 -21 311 -73 311 -15 0 -36 -9 -45 -19z"/>
</g>
</svg>
